<svg width="16" height="17" viewBox="0 0 16 17" fill="none" xmlns="http://www.w3.org/2000/svg">
<path d="M7.2626 10.0431V9.97694C7.26724 9.54512 7.31019 9.20152 7.39145 8.94614C7.47503 8.69077 7.59343 8.48415 7.74666 8.32628C7.89988 8.16841 8.08445 8.02447 8.30036 7.89446C8.43965 7.80624 8.56502 7.70757 8.67646 7.59845C8.78789 7.48934 8.87612 7.36397 8.94112 7.22235C9.00612 7.08074 9.03863 6.92403 9.03863 6.75223C9.03863 6.54561 8.98987 6.36684 8.89237 6.21594C8.79486 6.06503 8.66485 5.94895 8.50234 5.8677C8.34215 5.78412 8.16338 5.74233 7.96605 5.74233C7.78728 5.74233 7.61665 5.77948 7.45413 5.85377C7.29162 5.92806 7.15697 6.04414 7.05017 6.20201C6.94338 6.35756 6.88186 6.55838 6.86561 6.80447H5.80696C5.82321 6.38658 5.92884 6.03369 6.12385 5.74581C6.31887 5.45561 6.57657 5.23622 6.89695 5.08764C7.21965 4.93906 7.57602 4.86477 7.96605 4.86477C8.39322 4.86477 8.767 4.94486 9.08738 5.10505C9.40776 5.26292 9.65617 5.48463 9.83262 5.77019C10.0114 6.05343 10.1008 6.38426 10.1008 6.76268C10.1008 7.0227 10.0601 7.25718 9.97888 7.46612C9.89762 7.67274 9.78154 7.85731 9.63064 8.01982C9.48205 8.18234 9.30329 8.32628 9.09435 8.45164C8.89701 8.57469 8.73682 8.70238 8.61377 8.83471C8.49305 8.96704 8.40483 9.12375 8.34911 9.30483C8.29339 9.48592 8.26321 9.70995 8.25857 9.97694V10.0431H7.2626ZM7.78844 12.1604C7.59807 12.1604 7.4344 12.0931 7.29742 11.9584C7.16045 11.8214 7.09196 11.6566 7.09196 11.4639C7.09196 11.2736 7.16045 11.111 7.29742 10.9764C7.4344 10.8394 7.59807 10.7709 7.78844 10.7709C7.97649 10.7709 8.13901 10.8394 8.27598 10.9764C8.41528 11.111 8.48493 11.2736 8.48493 11.4639C8.48493 11.5916 8.45242 11.7089 8.38742 11.8156C8.32473 11.9201 8.24116 12.0037 8.13668 12.0664C8.03221 12.1291 7.91613 12.1604 7.78844 12.1604Z" fill="white"/>
<path d="M14.8628 8.10535C14.8628 12.1794 11.6792 15.4373 7.8064 15.4373C3.93356 15.4373 0.75 12.1794 0.75 8.10535C0.75 4.03132 3.93356 0.773438 7.8064 0.773438C11.6792 0.773438 14.8628 4.03132 14.8628 8.10535Z" stroke="white" stroke-width="1.5"/>
</svg>
