<svg width="51" height="69" viewBox="0 0 51 69" fill="none" xmlns="http://www.w3.org/2000/svg">
<path d="M2.12171 0.112587C1.8363 0.193558 1.32632 0.518837 0.966064 0.830734C-0.32448 2.00935 -0.32448 3.71671 0.98088 4.89603C1.61095 5.46491 2.21138 5.64093 3.72728 5.75006L5.06306 5.83103L5.13791 9.09649C5.21277 12.7281 5.46776 14.2862 6.32319 16.4674C7.74863 20.1532 9.79011 22.5512 15.042 26.7651C18.6742 29.6644 19.6053 30.5994 20.385 32.0766C20.895 33.039 20.9254 33.1608 20.9254 34.5155C20.9254 35.8701 20.895 35.9926 20.385 36.9543C19.6793 38.2956 18.689 39.339 16.4682 41.114C12.7463 44.0816 11.4409 45.2194 10.3905 46.317C7.74941 49.1488 6.30837 51.7778 5.51299 55.2327C5.28763 56.2352 5.19796 57.3061 5.13791 59.8802L5.04824 63.2407H4.35813C2.18175 63.2407 0.996476 63.7554 0.351594 64.9615C0.00614921 65.5712 -0.0382987 65.8014 0.0365606 66.4386C0.141832 67.3602 0.651811 68.1051 1.52205 68.6205L2.15212 69H25.5028H48.8534L49.4835 68.6205C50.3537 68.1058 50.8645 67.3602 50.969 66.4386C51.0439 65.8021 50.9994 65.5712 50.654 64.9615C50.0091 63.7554 48.823 63.2407 46.6474 63.2407H45.9573L45.8676 59.8802C45.7772 56.2085 45.5822 54.9883 44.7268 52.6987C43.3762 49.0404 41.2599 46.5198 36.008 42.306C31.8362 38.9588 30.966 38.0379 30.3055 36.2897C29.9 35.2054 29.9 33.8234 30.3203 32.7257C30.9652 30.9916 32.1965 29.7179 36.6833 26.1539C41.2303 22.5498 43.4066 19.8807 44.7268 16.3301C45.5822 14.0405 45.7772 12.8069 45.8676 9.16197L45.9573 5.82892L47.2783 5.74795C48.8394 5.63952 49.4094 5.45013 50.0699 4.8397C51.4954 3.51183 51.2256 1.43835 49.4843 0.409004L48.8542 0.0295105L25.7437 0.00204468C11.2608 -0.00991821 2.43674 0.0309143 2.12171 0.112587ZM43.3162 9.06904C43.2413 11.9416 43.1961 12.538 42.8663 13.7842C42.2214 16.2505 41.3808 17.9304 39.8649 19.8138C38.5595 21.4395 37.5239 22.402 34.3424 24.9767C30.8459 27.7817 29.8251 28.7435 28.88 30.1122C27.7992 31.6837 27.5294 32.5377 27.5294 34.5162C27.5294 36.0067 27.5747 36.332 27.9193 37.1719C28.7295 39.1771 30.1253 40.7084 33.7272 43.5536C38.9494 47.659 41.0805 50.112 42.2962 53.4176C43.1064 55.6262 43.2265 56.4253 43.317 59.9485L43.4066 63.2414H25.5184H7.64414V60.6941C7.64414 57.7941 7.79386 56.3852 8.31944 54.5969C9.41504 50.8569 11.4261 48.2286 16.0183 44.5836C20.7009 40.8711 22.2612 39.2313 23.087 37.1853C23.4169 36.332 23.4769 36.0067 23.4621 34.5162C23.4621 33.1073 23.4169 32.6736 23.1322 31.9688C22.322 29.9228 20.881 28.3239 17.2948 25.4921C11.2467 20.7228 9.31132 18.243 8.14009 13.7849C7.82505 12.5521 7.76501 11.9283 7.69015 9.06974L7.60048 5.79089H25.5036H43.4066L43.3162 9.06904Z" fill="url(#paint0_linear_504_1813)"/>
<path d="M9.59473 14.3941C9.59473 14.6377 10.5851 16.8197 11.0358 17.5646C12.2811 19.6106 13.6917 21.0335 17.6242 24.2039C21.6011 27.4018 22.7115 28.5262 23.8219 30.518C24.3771 31.5206 24.5877 32.1979 24.8122 33.6884C24.9924 34.9219 25.2474 35.2747 25.7573 34.9762C25.9523 34.8677 26.0724 34.4882 26.2073 33.6074C26.7328 30.0709 27.993 28.472 34.0706 23.635C38.0772 20.4505 39.8036 18.432 40.9592 15.5594C41.2142 14.9496 41.4092 14.4209 41.4092 14.3941C41.4092 14.3533 34.2508 14.3265 25.5016 14.3265C16.7524 14.3265 9.59473 14.3533 9.59473 14.3941Z" fill="url(#paint1_linear_504_1813)"/>
<path d="M25.2031 36.101C24.2424 36.413 24.513 37.7676 25.5329 37.7676C26.1934 37.7676 26.6582 36.9685 26.2831 36.4672C26.1778 36.332 25.5774 35.9926 25.4729 36.0201C25.4433 36.0194 25.3232 36.0602 25.2031 36.101Z" fill="url(#paint2_linear_504_1813)"/>
<path d="M26.4336 38.4581C25.6382 38.7291 25.6679 39.8268 26.4788 40.0162C27.3647 40.2196 28.04 39.4607 27.5596 38.7967C27.289 38.4179 26.8991 38.3095 26.4336 38.4581Z" fill="url(#paint3_linear_504_1813)"/>
<path d="M23.6427 40.3557C23.1772 40.6943 23.1327 41.1822 23.5523 41.5617C24.1379 42.0905 25.2031 41.711 25.2031 40.9654C25.2031 40.6267 24.5878 40.0712 24.2276 40.0712C24.1223 40.0712 23.8673 40.193 23.6427 40.3557Z" fill="url(#paint4_linear_504_1813)"/>
<path d="M26.4336 43.0655C25.6382 43.3366 25.6679 44.4342 26.4788 44.6236C27.3647 44.8271 28.04 44.0681 27.5596 43.4041C27.289 43.0247 26.8991 42.9162 26.4336 43.0655Z" fill="url(#paint5_linear_504_1813)"/>
<path d="M23.4911 46.1952C23.3562 46.3578 23.251 46.588 23.251 46.7098C23.251 46.8316 23.3562 47.0619 23.4911 47.2245C23.8366 47.685 24.7365 47.5906 25.0515 47.0752C25.2464 46.75 25.2464 46.669 25.0515 46.3303C24.7365 45.8297 23.8366 45.7347 23.4911 46.1952Z" fill="url(#paint6_linear_504_1813)"/>
<path d="M26.103 49.0134C25.9376 49.1627 25.8027 49.4063 25.8027 49.5555C25.8027 49.8808 26.4328 50.5039 26.7478 50.5039C27.1377 50.5039 27.753 49.9484 27.753 49.6097C27.753 49.1894 27.2578 48.7423 26.7775 48.7423C26.5677 48.743 26.2675 48.8648 26.103 49.0134Z" fill="url(#paint7_linear_504_1813)"/>
<path d="M22.2916 51.304C21.9017 51.6968 22.021 52.415 22.5466 52.6727C22.9068 52.8487 22.9965 52.8487 23.3716 52.6727C24.1966 52.2531 23.8815 51.047 22.9513 51.047C22.7267 51.0463 22.4265 51.1681 22.2916 51.304Z" fill="url(#paint8_linear_504_1813)"/>
<path d="M24.6769 52.3202C23.6866 52.7673 9.66992 61.6963 9.66992 61.8864C9.66992 62.0624 11.5305 62.0898 25.5027 62.0898C39.4445 62.0898 41.3354 62.0624 41.3354 61.8864C41.3354 61.7779 38.6343 59.9896 35.1673 57.8211C29.3595 54.1895 29.0296 53.9593 29.4492 53.8642C30.2594 53.715 30.53 53.0919 30.0348 52.5363C29.4344 51.8724 28.2187 52.4012 28.4144 53.2411C28.5041 53.6206 28.4893 53.6206 27.364 52.9299C26.1031 52.1716 25.3974 52.009 24.6769 52.3202Z" fill="url(#paint9_linear_504_1813)"/>
<defs>
<linearGradient id="paint0_linear_504_1813" x1="1.13614" y1="63.25" x2="57.8762" y2="56.3229" gradientUnits="userSpaceOnUse">
<stop stop-color="white"/>
<stop offset="0.0001" stop-color="#E2ABFF"/>
<stop offset="0.291667" stop-color="#DE9FFF" stop-opacity="0.933207"/>
<stop offset="0.567708" stop-color="#C354FE" stop-opacity="0.933207"/>
<stop offset="1" stop-color="#865CFF"/>
</linearGradient>
<linearGradient id="paint1_linear_504_1813" x1="10.3035" y1="33.347" x2="44.0611" y2="24.7978" gradientUnits="userSpaceOnUse">
<stop stop-color="white"/>
<stop offset="0.0001" stop-color="#E2ABFF"/>
<stop offset="0.291667" stop-color="#DE9FFF" stop-opacity="0.933207"/>
<stop offset="0.567708" stop-color="#C354FE" stop-opacity="0.933207"/>
<stop offset="1" stop-color="#865CFF"/>
</linearGradient>
<linearGradient id="paint2_linear_504_1813" x1="24.6487" y1="37.6218" x2="26.633" y2="37.2829" gradientUnits="userSpaceOnUse">
<stop stop-color="white"/>
<stop offset="0.0001" stop-color="#E2ABFF"/>
<stop offset="0.291667" stop-color="#DE9FFF" stop-opacity="0.933207"/>
<stop offset="0.567708" stop-color="#C354FE" stop-opacity="0.933207"/>
<stop offset="1" stop-color="#865CFF"/>
</linearGradient>
<linearGradient id="paint3_linear_504_1813" x1="25.8951" y1="39.9118" x2="27.9311" y2="39.5329" gradientUnits="userSpaceOnUse">
<stop stop-color="white"/>
<stop offset="0.0001" stop-color="#E2ABFF"/>
<stop offset="0.291667" stop-color="#DE9FFF" stop-opacity="0.933207"/>
<stop offset="0.567708" stop-color="#C354FE" stop-opacity="0.933207"/>
<stop offset="1" stop-color="#865CFF"/>
</linearGradient>
<linearGradient id="paint4_linear_504_1813" x1="23.3069" y1="41.6634" x2="25.4247" y2="41.2728" gradientUnits="userSpaceOnUse">
<stop stop-color="white"/>
<stop offset="0.0001" stop-color="#E2ABFF"/>
<stop offset="0.291667" stop-color="#DE9FFF" stop-opacity="0.933207"/>
<stop offset="0.567708" stop-color="#C354FE" stop-opacity="0.933207"/>
<stop offset="1" stop-color="#865CFF"/>
</linearGradient>
<linearGradient id="paint5_linear_504_1813" x1="25.8951" y1="44.5192" x2="27.9312" y2="44.1404" gradientUnits="userSpaceOnUse">
<stop stop-color="white"/>
<stop offset="0.0001" stop-color="#E2ABFF"/>
<stop offset="0.291667" stop-color="#DE9FFF" stop-opacity="0.933207"/>
<stop offset="0.567708" stop-color="#C354FE" stop-opacity="0.933207"/>
<stop offset="1" stop-color="#865CFF"/>
</linearGradient>
<linearGradient id="paint6_linear_504_1813" x1="23.2943" y1="47.3861" x2="25.4096" y2="46.9674" gradientUnits="userSpaceOnUse">
<stop stop-color="white"/>
<stop offset="0.0001" stop-color="#E2ABFF"/>
<stop offset="0.291667" stop-color="#DE9FFF" stop-opacity="0.933207"/>
<stop offset="0.567708" stop-color="#C354FE" stop-opacity="0.933207"/>
<stop offset="1" stop-color="#865CFF"/>
</linearGradient>
<linearGradient id="paint7_linear_504_1813" x1="25.8462" y1="50.3571" x2="27.977" y2="49.9675" gradientUnits="userSpaceOnUse">
<stop stop-color="white"/>
<stop offset="0.0001" stop-color="#E2ABFF"/>
<stop offset="0.291667" stop-color="#DE9FFF" stop-opacity="0.933207"/>
<stop offset="0.567708" stop-color="#C354FE" stop-opacity="0.933207"/>
<stop offset="1" stop-color="#865CFF"/>
</linearGradient>
<linearGradient id="paint8_linear_504_1813" x1="22.1013" y1="52.6582" x2="24.0632" y2="52.3289" gradientUnits="userSpaceOnUse">
<stop stop-color="white"/>
<stop offset="0.0001" stop-color="#E2ABFF"/>
<stop offset="0.291667" stop-color="#DE9FFF" stop-opacity="0.933207"/>
<stop offset="0.567708" stop-color="#C354FE" stop-opacity="0.933207"/>
<stop offset="1" stop-color="#865CFF"/>
</linearGradient>
<linearGradient id="paint9_linear_504_1813" x1="10.3753" y1="61.2633" x2="38.351" y2="46.5114" gradientUnits="userSpaceOnUse">
<stop stop-color="white"/>
<stop offset="0.0001" stop-color="#E2ABFF"/>
<stop offset="0.291667" stop-color="#DE9FFF" stop-opacity="0.933207"/>
<stop offset="0.567708" stop-color="#C354FE" stop-opacity="0.933207"/>
<stop offset="1" stop-color="#865CFF"/>
</linearGradient>
</defs>
</svg>
